<?xml version="1.0" standalone="no"?>
<!DOCTYPE svg PUBLIC "-//W3C//DTD SVG 20010904//EN"
 "http://www.w3.org/TR/2001/REC-SVG-20010904/DTD/svg10.dtd">
<svg version="1.0" xmlns="http://www.w3.org/2000/svg"
 width="700.000000pt" height="700.000000pt" viewBox="0 0 700.000000 700.000000"
 preserveAspectRatio="xMidYMid meet">
<metadata>
Created by potrace 1.14, written by Peter Selinger 2001-2017
</metadata>
<g transform="translate(0.000000,700.000000) scale(0.100000,-0.100000)"
fill="#000000" stroke="none">
<path d="M3080 5719 c-41 -4 -95 -12 -120 -19 -122 -33 -250 -136 -308 -249
-64 -126 -62 -80 -62 -1158 0 -944 1 -981 20 -1050 52 -187 195 -323 389 -369
41 -10 3198 -12 3271 -2 137 18 253 84 336 193 49 63 74 119 101 225 5 20 10
572 5 588 -3 9 -80 12 -338 12 -184 0 -334 -3 -335 -7 -1 -5 -2 -56 -4 -114
-3 -119 -18 -155 -84 -200 l-35 -24 -1225 -2 c-674 -1 -1248 0 -1274 3 -35 4
-59 15 -83 37 -69 60 -65 24 -66 705 0 439 4 626 12 647 16 42 76 93 119 101
48 9 2456 9 2503 0 21 -4 51 -18 68 -33 53 -44 63 -76 65 -198 l1 -110 324 -1
c179 0 332 3 340 7 13 6 15 46 14 281 -2 292 -4 320 -32 401 -65 183 -236 315
-430 333 -90 8 -3076 11 -3172 3z"/>
<path d="M1609 4646 c-2 -2 -24 -7 -49 -10 -122 -17 -285 -138 -345 -255 -56
-112 -58 -123 -62 -452 l-3 -305 340 0 340 -1 0 103 c0 122 19 174 78 214 36
25 41 25 270 28 171 2 232 6 233 15 0 16 0 548 0 615 l-1 52 -399 0 c-219 -1
-400 -2 -402 -4z"/>
<path d="M3449 4648 c-1 -2 -2 -155 -3 -340 l-1 -338 142 0 143 0 1 -27 c0
-16 0 -72 0 -125 l0 -98 129 0 c72 0 204 -1 295 -1 91 0 185 1 210 1 l45 0 0
465 0 465 -480 0 c-264 0 -481 -1 -481 -2z"/>
<path d="M3732 2390 c-1 -260 -3 -304 -18 -335 -19 -42 -66 -80 -109 -91 -16
-4 -585 -7 -1265 -7 -1346 1 -1274 -2 -1328 56 -36 38 -48 86 -47 191 0 53 -2
96 -5 97 -3 1 -154 2 -337 3 -324 1 -332 1 -335 -19 -5 -32 -1 -547 5 -575 24
-116 67 -200 141 -275 69 -70 176 -128 266 -146 60 -11 3203 -15 3275 -4 172
27 326 147 393 305 39 92 42 137 42 625 l0 475 -339 0 -338 0 -1 -300z"/>
</g>
</svg>
